<svg width="524" height="563" viewBox="0 0 524 563" fill="none" xmlns="http://www.w3.org/2000/svg">
<mask id="mask0_1_35" style="mask-type:alpha" maskUnits="userSpaceOnUse" x="0" y="0" width="524" height="563">
<path d="M372.5 99.5C368.5 90.7 349.833 45.1667 341 23.5C366.333 15.6667 418.8 0 426 0C435 0 465 23.5 476 37C487 50.5 515 87.5 521.5 99.5C528 111.5 518.5 212 515 231C511.5 250 455.5 337.5 447 352C438.5 366.5 328.5 455 308 461.5C287.5 468 120 562 104.5 562.5C92.0998 562.9 67.9997 479.833 46.4997 472L6.9997 444.5C5.66637 429.667 2.5997 395.1 0.999699 375.5C-1.0003 351 6.9997 304 6.9997 302C6.9997 300.4 19.333 264.333 25.4997 246.5L46.4997 222L69.4997 259L72.4997 262.5L77.9997 291.5C99.9997 308.833 145.1 343.3 149.5 342.5C153.9 341.7 210.333 338.833 238 337.5L324 314.5L405 184.5C395.833 159.833 376.5 108.3 372.5 99.5Z" fill="#D9D9D9"/>
</mask>
<g mask="url(#mask0_1_35)">
<path d="M343.819 64.5597C401.629 55.616 444.208 69.0713 466.091 98.391C487.966 127.699 489.049 172.754 464.042 226.625C439.035 280.496 392.716 332.884 338.141 374.02C283.543 415.172 220.916 444.904 163.107 453.848C105.298 462.791 62.7191 449.336 40.8355 420.016C18.9606 390.708 17.8772 345.653 42.8846 291.782C67.8919 237.912 114.21 185.523 168.786 144.387C223.383 103.235 286.01 73.5034 343.819 64.5597Z" stroke="#1B1B1D" stroke-width="3"/>
<path d="M343.819 94.5597C401.628 85.616 444.207 99.0713 466.091 128.391C487.966 157.699 489.049 202.754 464.042 256.625C439.034 310.496 392.716 362.884 338.14 404.02C283.543 445.172 220.916 474.904 163.107 483.848C105.298 492.791 62.7186 479.336 40.835 450.016C18.9602 420.708 17.8767 375.653 42.8841 321.782C67.8915 267.912 114.21 215.523 168.785 174.387C223.383 133.235 286.01 103.503 343.819 94.5597Z" stroke="#1B1B1D" stroke-width="3"/>
</g>
</svg>
