<svg width="36" height="36" viewBox="0 0 36 36" fill="none" xmlns="http://www.w3.org/2000/svg">
<g id="Star-Fill 5" clip-path="url(#clip0_1_68)">
<g id="&#208;&#161;&#208;&#187;&#208;&#190;&#208;&#185; 2">
<g id="Fill">
<g id="Star/Fill">
<path id="Vector" d="M26.385 21.39C26.2644 21.5136 26.1722 21.662 26.115 21.825C26.0772 21.9979 26.0772 22.177 26.115 22.35L27 28.245C27.0789 28.705 27.027 29.178 26.85 29.61C26.6703 30.0464 26.3682 30.4215 25.98 30.69C25.5952 30.9604 25.1441 31.1211 24.675 31.155C24.2077 31.1741 23.7446 31.0597 23.34 30.825L18.555 28.17C18.3948 28.0798 18.2138 28.0333 18.03 28.035C17.8415 28.0334 17.6556 28.0799 17.49 28.17L12.735 30.825C12.3206 31.047 11.8549 31.1557 11.385 31.14C11.0371 31.1172 10.6979 31.0221 10.3889 30.8607C10.0799 30.6993 9.80798 30.4752 9.59055 30.2027C9.37313 29.9302 9.21497 29.6154 9.1262 29.2783C9.03742 28.9411 9.01999 28.5892 9.075 28.245L10.035 22.35C10.0801 22.1779 10.0801 21.9971 10.035 21.825C9.98897 21.6604 9.90112 21.5105 9.78 21.39L5.565 17.145C5.25043 16.8129 5.02809 16.4044 4.92 15.96C4.80018 15.518 4.80018 15.052 4.92 14.61C5.08601 14.1743 5.3657 13.791 5.73 13.5C6.08186 13.2037 6.50652 13.0069 6.96 12.93L12.495 12.09C12.6736 12.0578 12.8428 11.9861 12.99 11.88C13.136 11.7686 13.2541 11.6248 13.335 11.46L15.735 6.29998C15.9339 5.87007 16.2513 5.50582 16.65 5.24998C17.0514 4.99517 17.517 4.85986 17.9925 4.85986C18.468 4.85986 18.9336 4.99517 19.335 5.24998C19.7337 5.50582 20.0511 5.87007 20.25 6.29998L22.665 11.46C22.7411 11.6278 22.8601 11.7727 23.01 11.88C23.1556 11.989 23.3255 12.061 23.505 12.09L29.04 12.93C29.4935 13.0069 29.9181 13.2037 30.27 13.5C30.6145 13.8026 30.8732 14.1906 31.02 14.625C31.1398 15.067 31.1398 15.533 31.02 15.975C30.9119 16.4194 30.6896 16.8279 30.375 17.16L26.385 21.39Z" fill="#1B1B1D"/>
</g>
</g>
</g>
</g>
<defs>
<clipPath id="clip0_1_68">
<rect width="36" height="36" fill="white"/>
</clipPath>
</defs>
</svg>
